<?xml version="1.0" encoding="UTF-8"?>
<!DOCTYPE svg PUBLIC "-//W3C//DTD SVG 1.1//EN" "http://www.w3.org/Graphics/SVG/1.1/DTD/svg11.dtd">
<svg xmlns="http://www.w3.org/2000/svg" version="1.1" width="32px" height="32px" style="shape-rendering:geometricPrecision; text-rendering:geometricPrecision; image-rendering:optimizeQuality; fill-rule:evenodd; clip-rule:evenodd" xmlns:xlink="http://www.w3.org/1999/xlink">
<g><path style="opacity:0.99" fill="#a4a4a4" d="M 7.5,-0.5 C 9.16667,-0.5 10.8333,-0.5 12.5,-0.5C 10.5,4.83333 8.5,10.1667 6.5,15.5C 4.80081,15.6602 3.13414,15.4935 1.5,15C 4.19186,10.0895 6.19186,4.92281 7.5,-0.5 Z"/></g>
<g><path style="opacity:0.998" fill="#bebebe" d="M 12.5,-0.5 C 15.8333,-0.5 19.1667,-0.5 22.5,-0.5C 20.1667,2.83333 17.8333,6.16667 15.5,9.5C 18.2469,10.2352 21.5802,10.9019 25.5,11.5C 22.8333,14.8333 19.8333,17.8333 16.5,20.5C 14.3123,19.4643 14.3123,17.9643 16.5,16C 14.8659,15.5065 13.1992,15.3398 11.5,15.5C 9.83333,15.5 8.16667,15.5 6.5,15.5C 8.5,10.1667 10.5,4.83333 12.5,-0.5 Z"/></g>
<g><path style="opacity:0.329" fill="#767676" d="M 15.5,9.5 C 19.226,9.17744 22.8927,9.51078 26.5,10.5C 26.3764,11.1067 26.0431,11.44 25.5,11.5C 21.5802,10.9019 18.2469,10.2352 15.5,9.5 Z"/></g>
<g><path style="opacity:0.99" fill="#939393" d="M 11.5,15.5 C 13.1992,15.3398 14.8659,15.5065 16.5,16C 14.3123,17.9643 14.3123,19.4643 16.5,20.5C 13.8712,23.6306 11.0379,26.6306 8,29.5C 8.62896,24.7644 9.79563,20.0977 11.5,15.5 Z"/></g>
</svg>
